<svg width="108" height="108" viewBox="0 0 108 108" fill="none" xmlns="http://www.w3.org/2000/svg">
<path d="M78.7743 56.342C80.1507 56.342 81.2668 55.2259 81.2668 53.8495C81.2668 52.4732 80.1507 51.3571 78.7743 51.3571C77.398 51.3571 76.2819 52.4732 76.2819 53.8495C76.2819 55.2259 77.398 56.342 78.7743 56.342Z" fill="#797777" stroke="#797777" stroke-width="7.47743" stroke-linecap="round" stroke-linejoin="round"/>
<path d="M53.8495 56.342C55.2259 56.342 56.342 55.2259 56.342 53.8495C56.342 52.4732 55.2259 51.3571 53.8495 51.3571C52.4732 51.3571 51.3571 52.4732 51.3571 53.8495C51.3571 55.2259 52.4732 56.342 53.8495 56.342Z" fill="#797777" stroke="#797777" stroke-width="7.47743" stroke-linecap="round" stroke-linejoin="round"/>
<path d="M28.9247 56.342C30.3013 56.342 31.4172 55.2259 31.4172 53.8495C31.4172 52.4732 30.3013 51.3571 28.9247 51.3571C27.5482 51.3571 26.4323 52.4732 26.4323 53.8495C26.4323 55.2259 27.5482 56.342 28.9247 56.342Z" fill="#797777" stroke="#797777" stroke-width="7.47743" stroke-linecap="round" stroke-linejoin="round"/>
<path d="M53.8496 103.699C81.3805 103.699 103.699 81.3805 103.699 53.8496C103.699 26.3184 81.3805 4 53.8496 4C26.3184 4 4 26.3184 4 53.8496C4 62.9292 6.42752 71.442 10.669 78.7743L6.49248 101.207L28.9248 97.0302C36.257 101.271 44.77 103.699 53.8496 103.699Z" stroke="#797777" stroke-width="7.47743" stroke-linecap="round" stroke-linejoin="round"/>
</svg>
