<?xml version="1.0" standalone="no"?><svg xmlns="http://www.w3.org/2000/svg" viewBox="0 0 1440 320"><path fill="#0069FD" fill-opacity="1" d="M0,32L26.7,69.3C53.3,107,107,181,160,208C213.3,235,267,213,320,186.7C373.3,160,427,128,480,117.3C533.3,107,587,117,640,122.7C693.3,128,747,128,800,106.7C853.3,85,907,43,960,69.3C1013.3,96,1067,192,1120,202.7C1173.3,213,1227,139,1280,122.7C1333.3,107,1387,149,1413,170.7L1440,192L1440,320L1413.3,320C1386.7,320,1333,320,1280,320C1226.7,320,1173,320,1120,320C1066.7,320,1013,320,960,320C906.7,320,853,320,800,320C746.7,320,693,320,640,320C586.7,320,533,320,480,320C426.7,320,373,320,320,320C266.7,320,213,320,160,320C106.7,320,53,320,27,320L0,320Z"></path></svg>