<svg width="109" height="106" viewBox="0 0 109 106" fill="none" xmlns="http://www.w3.org/2000/svg">
<path d="M38.233 100.948H27.1554C14.9193 100.948 5 91.0283 5 78.7924V43.9398C5 36.1925 9.04673 29.0079 15.6722 24.9925L43.3664 8.20815C50.4246 3.93062 59.2745 3.93062 66.3327 8.20815L94.0269 24.9925C100.652 29.0079 104.699 36.1925 104.699 43.9398V78.7924C104.699 91.0283 94.7796 100.948 82.5438 100.948H71.4661M38.233 100.948V78.7924C38.233 69.6151 45.6723 62.1759 54.8496 62.1759C64.0269 62.1759 71.4661 69.6151 71.4661 78.7924V100.948M38.233 100.948H71.4661" stroke="#0069FD" stroke-width="8.30826" stroke-linecap="round" stroke-linejoin="round"/>
</svg>
