<svg width="423" height="227" viewBox="0 0 423 227" fill="none" xmlns="http://www.w3.org/2000/svg">
<path d="M250.883 113.237C250.883 64.2583 205.338 15 149.79 15C143.21 15 121.522 15.0002 116.093 15.0002C60.2608 15.0002 15 58.9827 15 113.237C15 159.989 48.608 199.115 93.6277 209.041C100.853 210.635 108.372 211.475 116.093 211.475" stroke="#0069FD" stroke-width="29.4854" stroke-linecap="round" stroke-linejoin="round"/>
<path d="M172.255 113.238C172.255 162.217 217.8 211.475 273.349 211.475C279.928 211.475 301.618 211.475 307.045 211.475C362.878 211.475 408.138 167.493 408.138 113.238C408.138 66.4856 374.531 27.3612 329.511 17.4343C322.285 15.8411 314.766 15 307.045 15" stroke="#0069FD" stroke-width="29.4854" stroke-linecap="round" stroke-linejoin="round"/>
</svg>
