<svg width="421" height="332" viewBox="0 0 421 332" fill="none" xmlns="http://www.w3.org/2000/svg">
<path d="M14 317.789V299.919C14 230.834 70.0045 174.829 139.089 174.829C208.175 174.829 264.179 230.834 264.179 299.919V317.789" stroke="#666666" stroke-width="26.8049" stroke-linecap="round"/>
<path d="M228.439 210.569C228.439 161.223 268.443 121.219 317.789 121.219C367.135 121.219 407.138 161.223 407.138 210.569V219.504" stroke="#666666" stroke-width="26.8049" stroke-linecap="round"/>
<path d="M139.089 174.829C178.566 174.829 210.569 142.826 210.569 103.35C210.569 63.8724 178.566 31.8699 139.089 31.8699C99.6123 31.8699 67.6097 63.8724 67.6097 103.35C67.6097 142.826 99.6123 174.829 139.089 174.829Z" stroke="#666666" stroke-width="26.8049" stroke-linecap="round" stroke-linejoin="round"/>
<path d="M317.789 121.22C347.397 121.22 371.399 97.2176 371.399 67.6098C371.399 38.002 347.397 14 317.789 14C288.18 14 264.179 38.002 264.179 67.6098C264.179 97.2176 288.18 121.22 317.789 121.22Z" stroke="#666666" stroke-width="26.8049" stroke-linecap="round" stroke-linejoin="round"/>
</svg>
